<svg id="Layer_1" data-name="Layer 1" xmlns="http://www.w3.org/2000/svg" viewBox="0 0 281.77 165.89"><defs><style>.cls-1{fill:none;stroke:#000;stroke-miterlimit:10;}.cls-2{fill-rule:evenodd;}.cls-3{fill:#231f20;}</style></defs><title>logoX500</title><line class="cls-1" x1="141.75" y1="61.32" x2="141.75" y2="105.75"/><path id="a" class="cls-2" d="M27.33,114.31a.88.88,0,0,1-1.29.23l-10.55-7.7a.91.91,0,0,1-.2-1.28l0,0L28.73,88.34a.37.37,0,0,0,.06-.35.35.35,0,0,0-.26-.24L7.71,82a.91.91,0,0,1-.62-1.16l4-12.48a.89.89,0,0,1,.46-.53.88.88,0,0,1,.71,0L32.6,75.25a.37.37,0,0,0,.35,0,.39.39,0,0,0,.15-.33l-.88-21.64a1,1,0,0,1,.25-.68.94.94,0,0,1,.65-.28H46.17a.88.88,0,0,1,.65.28.93.93,0,0,1,.26.68l-.9,21.62a.41.41,0,0,0,.16.33.43.43,0,0,0,.35.06L67,67.78a.88.88,0,0,1,.71,0,.89.89,0,0,1,.46.53l4,12.48a.92.92,0,0,1-.07.71.86.86,0,0,1-.55.45L50.74,87.77a.35.35,0,0,0-.26.24.41.41,0,0,0,.06.37L64,105.53a.92.92,0,0,1-.16,1.29l0,0-10.56,7.7a.84.84,0,0,1-.7.17.93.93,0,0,1-.59-.4L40,96.09a.38.38,0,0,0-.31-.16.4.4,0,0,0-.32.16l-12,18.22Z"/><g id="g49"><g id="g51"><path id="path53" class="cls-3" d="M244.86,66.9a48.32,48.32,0,0,1,24.48,6.61L277,60.38a63.8,63.8,0,0,0-64.29,0l7.67,13.13A48.38,48.38,0,0,1,244.86,66.9Z"/></g><g id="g55"><path id="path57" class="cls-3" d="M252,74.13a54.86,54.86,0,0,0-24.73,5.4c-1.55.72-2.65,1.32-2.91.94-.52-.83,3.34-4.12,7.49-6.52,1.5-.89,2.35-1.67,2-2.33-.5-1-3.47-1.16-11.76,3.08a46.58,46.58,0,0,0-11.37,8.92l1.35,1.28c1.33-1.41,2.77-2.71,4.23-4,1-.85,5.51-4.24,5.91-3.22.15.41-.14,1-1.74,3.2-1.4,1.94-2.32,3.76-1.66,4.31s1.46.24,3.35-.8A66.72,66.72,0,0,1,235,79.16c7-2.09,8.72-1.29,8.89-.78.21.69-3,1.83-4.92,2.77a83,83,0,0,0-10.27,6.58s3,5.08,3,5.08c3.15-1.86,15.14-4.89,16.43-2.7,1.4,2.41-11.36,11.38-11.36,11.38l8.13,14s18.51-21.25,15.56-25.91-14.12-3.78-18.51-3.36c-1.21.1-2.63.37-2.92-.23s0-3.31,14.9-6.83c3.3-.78,4.58-1.18,4.4-2.64C258.14,75.23,255.08,74.15,252,74.13Z"/></g></g></svg>