<svg id="Layer_1" data-name="Layer 1" xmlns="http://www.w3.org/2000/svg" viewBox="0 0 1013 568"><defs><style>.cls-1{fill-rule:evenodd;}.cls-2{fill:#231f20;}.cls-3{fill:none;stroke:#000;stroke-miterlimit:10;}</style></defs><title>Artboard 2</title><path id="a" class="cls-1" d="M117.24,256.68v35.5a.54.54,0,0,1-.53.53h-8a.53.53,0,0,1-.53-.53h0v-35.5a.53.53,0,0,1,.53-.53h8a.53.53,0,0,1,.53.53Zm123,0a.53.53,0,0,1,.53-.53h23.62a.52.52,0,0,1,.52.53h0v6.25a.52.52,0,0,1-.52.53h-14.8a.48.48,0,0,0-.47.48v6.75a.48.48,0,0,0,.47.48h12.72a.53.53,0,0,1,.53.53v5.46a.53.53,0,0,1-.53.53H249.62a.48.48,0,0,0-.47.48v6.75a.47.47,0,0,0,.47.47h14.8a.52.52,0,0,1,.52.53h0v6.25a.52.52,0,0,1-.52.53H240.8a.53.53,0,0,1-.53-.53h0Zm-43.1,35.53a.37.37,0,0,1-.22.47.28.28,0,0,1-.13,0h-7.73a.73.73,0,0,1-.69-.5l-2-5.62a.75.75,0,0,0-.7-.49H172.34a.73.73,0,0,0-.69.49l-2,5.62a.73.73,0,0,1-.7.5h-7.73a.38.38,0,0,1-.37-.37.28.28,0,0,1,0-.13l13.2-35.57a.73.73,0,0,1,.69-.49h8.5a.73.73,0,0,1,.68.49l13.21,35.57Zm-22.9-13.06a.32.32,0,0,0,.19.4.23.23,0,0,0,.11,0h8.91a.32.32,0,0,0,.32-.32.3.3,0,0,0,0-.1l-4.5-12.76a.27.27,0,0,0-.25-.17.26.26,0,0,0-.25.17l-4.51,12.76Zm132.57,13.06a.36.36,0,0,1-.21.47.35.35,0,0,1-.14,0h-7.73a.73.73,0,0,1-.69-.5l-2-5.62a.73.73,0,0,0-.69-.49H282a.74.74,0,0,0-.7.49l-2,5.62a.73.73,0,0,1-.69.5h-7.73a.37.37,0,0,1-.37-.37.27.27,0,0,1,0-.13l13.2-35.57a.74.74,0,0,1,.69-.49H293a.74.74,0,0,1,.69.49l13.2,35.57ZM284,279.15a.31.31,0,0,0,.19.4.18.18,0,0,0,.1,0h8.91a.31.31,0,0,0,.32-.31.2.2,0,0,0,0-.11L289,266.39a.27.27,0,0,0-.5,0L284,279.15ZM55.33,256.68a.53.53,0,0,1,.53-.53h9.32a.51.51,0,0,1,.48.32l11,24.49a.13.13,0,0,0,.1.06.11.11,0,0,0,.1-.06l11-24.49a.55.55,0,0,1,.49-.32h9.33a.52.52,0,0,1,.52.53v35.5a.52.52,0,0,1-.52.53H90.1a.53.53,0,0,1-.53-.53h0V271.24a.1.1,0,0,0-.08-.1.1.1,0,0,0-.12.06l-9.81,21.19a.55.55,0,0,1-.49.32H74.49a.54.54,0,0,1-.49-.32L64.19,271.2a.1.1,0,0,0-.12-.06.1.1,0,0,0-.08.1v20.94a.53.53,0,0,1-.53.53h-7.6a.53.53,0,0,1-.53-.53h0v-35.5Zm167.18,36h-19a.56.56,0,0,1-.4-.17.57.57,0,0,1-.16-.39V256.71a.57.57,0,0,1,.56-.56h17.19a9.94,9.94,0,0,1,6.12,17.71,9.93,9.93,0,0,1-4.3,18.85Zm1.55-11a4.34,4.34,0,0,0-1.19-3,4,4,0,0,0-2.87-1.2h-7.83a.49.49,0,0,0-.49.49v7.4a.49.49,0,0,0,.49.49H220a4.06,4.06,0,0,0,2.87-1.19,4.38,4.38,0,0,0,1.19-3Zm-1.93-14.48a4.16,4.16,0,0,0-4.06-4.19h-5.9a.49.49,0,0,0-.49.49v7.4a.49.49,0,0,0,.49.49h5.9A4.16,4.16,0,0,0,222.13,267.19ZM334.5,278.66v-22a.5.5,0,0,1,.16-.34.47.47,0,0,1,.37-.16h8.14a.49.49,0,0,1,.37.16.5.5,0,0,1,.15.37v21.14a15.62,15.62,0,0,1-15.58,15.67h-2.17a15.45,15.45,0,0,1-15.36-15.67V256.68a.51.51,0,0,1,.15-.37.49.49,0,0,1,.37-.16h8.14a.49.49,0,0,1,.38.16.5.5,0,0,1,.15.37v22a7.38,7.38,0,0,0,7.37,7.4,7.31,7.31,0,0,0,5.2-2.17,7.39,7.39,0,0,0,2.16-5.23Zm46,14.62a.61.61,0,0,1-.38.25.53.53,0,0,1-.44-.11l-6.72-4.9a.58.58,0,0,1-.12-.81v0l8.54-10.94a.24.24,0,0,0,0-.22.3.3,0,0,0-.17-.16L368,272.71a.56.56,0,0,1-.35-.29.55.55,0,0,1,0-.45l2.56-7.94a.59.59,0,0,1,.3-.34.58.58,0,0,1,.45,0l12.92,4.76a.22.22,0,0,0,.22,0,.25.25,0,0,0,.1-.21l-.56-13.76a.56.56,0,0,1,.16-.43.55.55,0,0,1,.41-.18h8.3a.58.58,0,0,1,.58.61l-.57,13.75a.25.25,0,0,0,.32.25l12.93-4.75a.59.59,0,0,1,.45,0,.58.58,0,0,1,.29.34L409,272a.64.64,0,0,1,0,.45.61.61,0,0,1-.36.29l-13.26,3.68a.26.26,0,0,0-.17.15.29.29,0,0,0,0,.24l8.56,10.91a.59.59,0,0,1-.1.82h0l-6.71,4.9a.56.56,0,0,1-.45.11.57.57,0,0,1-.37-.25l-7.64-11.59a.23.23,0,0,0-.2-.11.24.24,0,0,0-.2.11l-7.63,11.59ZM127.67,256.15h17.26a11.25,11.25,0,0,1,4,21.76.21.21,0,0,0-.12.28v0l7.78,13.92a.39.39,0,0,1,0,.38.38.38,0,0,1-.32.18H147.9a.69.69,0,0,1-.63-.38l-6.88-12.6a.64.64,0,0,0-.56-.34h-3.16a.49.49,0,0,0-.44.48v12.31a.53.53,0,0,1-.53.53h-8a.53.53,0,0,1-.53-.53h0V256.68a.53.53,0,0,1,.53-.53Zm14.72,7.3H136.7a.58.58,0,0,0-.33.14.52.52,0,0,0-.14.35v8.57a.51.51,0,0,0,.14.34.47.47,0,0,0,.33.14h5.69a4.77,4.77,0,0,0,0-9.54ZM356.61,256v37a.18.18,0,0,1-.18.19h-.38a.18.18,0,0,1-.19-.19V256a.2.2,0,0,1,.19-.2h.38a.19.19,0,0,1,.18.2ZM68,323.06,66.28,319H57.84l-1.67,4.08h-.84l6.3-15.21h.87l6.3,15.21Zm-5.9-14.37-3.94,9.6H66l-4-9.6Zm13.42,6.77a7.7,7.7,0,0,1,8.07-7.87,6.87,6.87,0,0,1,6.31,3.72l-2.77,1.37a4.08,4.08,0,0,0-3.54-2.21,5,5,0,0,0,0,10,4.08,4.08,0,0,0,3.54-2.21l2.77,1.34a6.93,6.93,0,0,1-6.31,3.74A7.71,7.71,0,0,1,75.48,315.46Zm15.31,2.08a5.8,5.8,0,1,1,5.79,5.79A5.56,5.56,0,0,1,90.79,317.54Zm8.6,0c0-1.71-1-3.19-2.81-3.19s-2.79,1.48-2.79,3.19,1,3.22,2.79,3.22S99.39,319.27,99.39,317.54Zm4.7,8.35,1.3-2.08a4.41,4.41,0,0,0,3.42,1.35c1.39,0,3-.59,3-2.83v-1.07a4.25,4.25,0,0,1-3.4,1.71c-2.72,0-4.83-1.92-4.83-5.59s2.06-5.61,4.83-5.61a4.18,4.18,0,0,1,3.4,1.69V312h2.88v10.29c0,4.18-3.22,5.2-5.92,5.2A6.66,6.66,0,0,1,104.09,325.89Zm7.76-6.73v-3.58a3.22,3.22,0,0,0-2.47-1.23,3,3,0,0,0,0,6.06A3.24,3.24,0,0,0,111.85,319.16Zm12.92,3.9V316.4a1.79,1.79,0,0,0-2-2,3.19,3.19,0,0,0-2.49,1.27v7.44h-2.88V312h2.88v1.42a5.07,5.07,0,0,1,3.83-1.69c2.43,0,3.59,1.37,3.59,3.51v7.78Zm5.51,0V312h2.88v11ZM130,309.12a1.71,1.71,0,1,1,3.42,0,1.71,1.71,0,1,1-3.42,0Zm5.31,13.94v-2.17l5-6.32h-5V312h8.87v2.08l-5,6.41h5.13v2.53Zm17.7,0V321.9a4.46,4.46,0,0,1-3.47,1.43,3.63,3.63,0,0,1-3.79-3.64c0-2.61,2-3.56,3.79-3.56a4.49,4.49,0,0,1,3.47,1.34v-1.39c0-1.12-1-1.85-2.41-1.85a4.62,4.62,0,0,0-3.15,1.3l-1.13-2a7,7,0,0,1,4.78-1.73c2.52,0,4.81,1,4.81,4.17v7.12Zm0-2.64v-1.37a2.89,2.89,0,0,0-2.32-1c-1.13,0-2.06.61-2.06,1.66s.93,1.64,2.06,1.64a2.9,2.9,0,0,0,2.32-.95Zm12.91,2.64V316.4c0-1.53-.79-2-2-2a3.22,3.22,0,0,0-2.49,1.27v7.44h-2.89V312h2.89v1.42a5.07,5.07,0,0,1,3.83-1.69c2.43,0,3.59,1.37,3.59,3.51v7.78ZM172,320.3v-5.73h-1.82V312H172v-3h2.88v3h2.22v2.53h-2.22v5c0,.7.36,1.23,1,1.23a1.47,1.47,0,0,0,1-.34l.61,2.21a3.53,3.53,0,0,1-2.41.71A2.73,2.73,0,0,1,172,320.3Zm12.52,2.76V307.85h6c4.74,0,8,3,8,7.59s-3.29,7.62-8,7.62Zm10.71-7.62a4.42,4.42,0,0,0-4.72-4.74h-2.77v9.51h2.75a4.55,4.55,0,0,0,4.74-4.77Zm5.29,7.62V312h2.88v11Zm-.27-13.94a1.72,1.72,0,0,1,3.43,0,1.72,1.72,0,1,1-3.43,0Zm5.56,16.77,1.29-2.08a4.45,4.45,0,0,0,3.43,1.35c1.38,0,3-.59,3-2.83v-1.07a4.25,4.25,0,0,1-3.4,1.71c-2.73,0-4.84-1.92-4.84-5.59s2.07-5.61,4.84-5.61a4.2,4.2,0,0,1,3.4,1.69V312h2.88v10.29c0,4.18-3.22,5.2-5.92,5.2A6.64,6.64,0,0,1,205.85,325.89Zm7.76-6.73v-3.58a3.22,3.22,0,0,0-2.47-1.23,3,3,0,0,0,0,6.06,3.24,3.24,0,0,0,2.47-1.25Zm5.52,3.9V312H222v11Zm-.28-13.94a1.72,1.72,0,0,1,3.43,0,1.72,1.72,0,1,1-3.43,0Zm6.38,11.18v-5.73h-1.82V312h1.82v-3h2.88v3h2.23v2.53h-2.23v5c0,.7.36,1.23,1,1.23a1.47,1.47,0,0,0,1-.34l.61,2.21a3.52,3.52,0,0,1-2.4.71,2.74,2.74,0,0,1-3.09-3Zm13.43,2.76V321.9a4.46,4.46,0,0,1-3.47,1.43,3.63,3.63,0,0,1-3.79-3.64c0-2.61,2-3.56,3.79-3.56a4.46,4.46,0,0,1,3.47,1.34v-1.39c0-1.12-.95-1.85-2.4-1.85a4.58,4.58,0,0,0-3.15,1.3l-1.14-2a7,7,0,0,1,4.79-1.73c2.52,0,4.81,1,4.81,4.17v7.12Zm0-2.64v-1.37a2.87,2.87,0,0,0-2.31-1c-1.14,0-2.07.61-2.07,1.66s.93,1.64,2.07,1.64a2.88,2.88,0,0,0,2.31-.95Zm5.52-12.57h2.88v15.21h-2.88Zm11.19,15.21V307.85h8c2.88,0,4.36,1.84,4.36,3.87a3.38,3.38,0,0,1-2.61,3.49,3.66,3.66,0,0,1,2.9,3.72c0,2.31-1.5,4.13-4.4,4.13Zm9.32-4.58a1.74,1.74,0,0,0-1.93-1.74h-4.17v3.47h4.17A1.69,1.69,0,0,0,264.69,318.48Zm-.3-6.19a1.58,1.58,0,0,0-1.76-1.59h-4v3.19h4a1.56,1.56,0,0,0,1.76-1.6Zm13.12,10.77v-1.39a5.21,5.21,0,0,1-3.86,1.67c-2.4,0-3.53-1.33-3.53-3.47V312H273v6.69c0,1.53.79,2,2,2a3.21,3.21,0,0,0,2.49-1.26V312h2.89v11Zm4.57-1.44,1.24-2.09a6.23,6.23,0,0,0,3.79,1.52c1.25,0,1.84-.48,1.84-1.16,0-1.8-6.49-.32-6.49-4.65,0-1.85,1.59-3.47,4.49-3.47a7,7,0,0,1,4.41,1.51l-1.16,2.05a4.7,4.7,0,0,0-3.25-1.28c-1,0-1.72.46-1.72,1.07,0,1.62,6.51.25,6.51,4.7,0,2-1.72,3.51-4.76,3.51A7.29,7.29,0,0,1,282.08,321.62Zm11.55,1.44V312h2.88v11Zm-.28-13.94a1.72,1.72,0,0,1,3.43,0,1.72,1.72,0,1,1-3.43,0Zm13.19,13.94V316.4c0-1.53-.8-2-2-2a3.22,3.22,0,0,0-2.5,1.27v7.44h-2.88V312H302v1.42a5.11,5.11,0,0,1,3.84-1.69c2.43,0,3.58,1.37,3.58,3.51v7.78Zm4.81-5.52a5.61,5.61,0,0,1,5.67-5.77c3.29,0,5.49,2.46,5.49,6v.69h-8.14a2.94,2.94,0,0,0,3.15,2.46,4.62,4.62,0,0,0,2.91-1.07l1.29,1.92a6.83,6.83,0,0,1-4.52,1.53,5.57,5.57,0,0,1-5.85-5.8Zm5.67-3.4a2.54,2.54,0,0,0-2.68,2.35h5.4A2.5,2.5,0,0,0,317,314.14Zm6.4,7.48,1.25-2.09a6.23,6.23,0,0,0,3.79,1.52c1.25,0,1.84-.48,1.84-1.16,0-1.8-6.49-.32-6.49-4.65,0-1.85,1.59-3.47,4.49-3.47a6.93,6.93,0,0,1,4.4,1.51l-1.16,2.05a4.66,4.66,0,0,0-3.24-1.28c-1,0-1.72.46-1.72,1.07,0,1.62,6.51.25,6.51,4.7,0,2-1.72,3.51-4.77,3.51A7.33,7.33,0,0,1,323.42,321.62Zm11.85-2.09a6.23,6.23,0,0,0,3.79,1.52c1.25,0,1.84-.48,1.84-1.16,0-1.8-6.49-.32-6.49-4.65,0-1.85,1.59-3.47,4.49-3.47a6.93,6.93,0,0,1,4.4,1.51l-1.16,2.05a4.66,4.66,0,0,0-3.24-1.28c-1,0-1.73.46-1.73,1.07,0,1.62,6.52.25,6.52,4.7,0,2-1.73,3.51-4.77,3.51a7.31,7.31,0,0,1-4.9-1.71Z"/><g id="g3"><path id="path5" class="cls-2" d="M652.91,290.7h.65c1.14,0,1.16-.64,1.16-3.68v-8.18c0-3,0-3.69-1.19-3.69h-.62v-.69h7.33v.69h-.62c-1.16,0-1.18.64-1.18,3.69v3.4h6v-3.4c0-3,0-3.69-1.19-3.69h-.61v-.69H670v.69h-.62c-1.17,0-1.19.64-1.19,3.69V287c0,3,0,3.68,1.16,3.68H670v.7h-7.33v-.7h.61c1.17,0,1.19-.64,1.19-3.68v-4h-6v4c0,3,0,3.68,1.18,3.68h.62v.7h-7.33Z"/><path id="path7" class="cls-2" d="M675.21,285.42c0-4.73,1-5.51,2.31-5.51s2.31.78,2.31,5.51c0,4.14-.62,5.56-2.31,5.56s-2.31-1.42-2.31-5.56m-3.57,0c0,3.73,2.1,6.36,5.88,6.36s5.88-2.63,5.88-6.36-2.1-6.34-5.88-6.34-5.88,2.65-5.88,6.34"/><path id="path9" class="cls-2" d="M689.26,283.28c0-1.34.07-3.37,1.9-3.37s1.75,2.32,1.75,3.52-.2,2.94-1.76,2.94c-1.82,0-1.89-1.72-1.89-3.09m.91,5.61c-1.21,0-1.73-.17-1.73-.74s.33-.95,1.11-.95c3.09,0,6.79,0,6.79-4.15a3.82,3.82,0,0,0-1.67-3,3.07,3.07,0,0,1,1.05-.23c.59,0,.19,1.26,1.62,1.26a1.22,1.22,0,0,0,1.21-1.36,1.33,1.33,0,0,0-1.28-1.49c-1.15,0-2.1,1.18-3.39,1.18-.54,0-1.57-.29-2.86-.29-2.6,0-5.2,1.18-5.2,4.15a3.63,3.63,0,0,0,2.7,3.56v0a2.58,2.58,0,0,0-1.86,2.54,2,2,0,0,0,1.43,2v.06c-1.22.12-2.78,1-2.78,2.42,0,2.6,3.37,3.07,5.35,3.07,2.85,0,6.63-1.08,6.63-4.54,0-3-2.51-3.51-4.3-3.51Zm1.22,2.84c1.41,0,3.72,0,3.72,2s-2.31,2.43-3.84,2.43-3.78-.34-3.78-2.23c0-2.12,2.31-2.17,3.9-2.17"/><path id="path11" class="cls-2" d="M703.14,284.78c0-2.34.09-4.87,2.07-4.87,1.75,0,1.75,2.29,1.75,4.87Zm7.54.69c0-3.69-1.4-6.39-5.38-6.39-3.78,0-5.88,2.65-5.88,6.35s2.1,6.36,5.88,6.36c3,0,4.84-1.53,5.15-4.47H709.4a3.49,3.49,0,0,1-3.34,3.67c-2.71,0-2.92-2.52-2.92-4.91v-.59h7.54Z"/><path id="path13" class="cls-2" d="M712.65,287.5h.77c.47,2,1.59,3.48,3.83,3.48a2.15,2.15,0,0,0,2.38-2c0-1.53-1.19-1.86-3.47-2.39-1.76-.41-3.51-1-3.51-3.46,0-2.84,2.08-4.1,4.7-4.09,1.07,0,1.83.39,2.62.39a2,2,0,0,0,1.28-.4h.15v3.83h-.77a3.41,3.41,0,0,0-3.19-3c-1.16,0-2.35.44-2.35,1.9,0,1.21.62,1.38,3.38,2,2.11.47,3.73,1.15,3.73,3.91s-2.35,4-4.85,4c-1.12,0-2.34-.38-3.36-.38a2.29,2.29,0,0,0-1.19.38h-.15V287.5Z"/><path id="path15" class="cls-2" d="M734.64,287.42c-.33,2.94-2,4.36-4.92,4.36-3.85,0-5.62-2.89-5.62-6.47a5.8,5.8,0,0,1,6.07-6.23c3.29,0,4.27,1.78,4.27,2.62a1.72,1.72,0,0,1-1.84,1.93A1.54,1.54,0,0,1,731,282c0-.7.34-.82.34-1.11,0-.52-.82-1-1.36-1-2.05,0-2.16,2.9-2.16,5.69,0,1.89,0,5.39,2.61,5.39,2.17,0,3-1.62,3.16-3.57Z"/><path id="path17" class="cls-2" d="M736,290.7h.81c.71,0,1-.3,1-1.61V276c0-1.31-.24-1.61-1-1.61H736v-.7h5.19v7.41h.05a4.14,4.14,0,0,1,3.71-2,3.14,3.14,0,0,1,3.48,3.38v6.63c0,1.31.24,1.61,1,1.61h.53v.7h-6.39v-.7H744c.71,0,1-.3,1-1.61v-6c0-1.17,0-2.53-1.53-2.53-2.28,0-2.28,2.63-2.28,4.11v4.43c0,1.31.24,1.62,1,1.62h.52v.69H736v-.7Z"/><path id="path19" class="cls-2" d="M755,285.42c0-4.73,1-5.51,2.31-5.51s2.31.78,2.31,5.51c0,4.14-.62,5.56-2.31,5.56s-2.31-1.42-2.31-5.56m-3.56,0c0,3.73,2.09,6.36,5.87,6.36s5.88-2.63,5.88-6.36-2.1-6.34-5.88-6.34-5.87,2.65-5.87,6.34"/><path id="path21" class="cls-2" d="M768.67,285.42c0-4.73,1.05-5.51,2.31-5.51s2.31.78,2.31,5.51c0,4.14-.62,5.56-2.31,5.56s-2.31-1.42-2.31-5.56m-3.56,0c0,3.73,2.09,6.36,5.87,6.36s5.88-2.63,5.88-6.36-2.1-6.34-5.88-6.34-5.87,2.65-5.87,6.34"/><path id="path23" class="cls-2" d="M778.11,290.7h.81c.71,0,1-.3,1-1.6V276c0-1.31-.24-1.61-1-1.61h-.81v-.7h5.2V289.1c0,1.3.24,1.6,1,1.6h.81v.7h-7v-.7Z"/><path id="path25" class="cls-2" d="M803.9,280.16c-.88,0-1.15.74-1.53,1.65l-2.9,7c-.36.87-.69,1.78-1,2.71h-1.6c-.21-.62-.43-1.28-.67-1.89l-3.16-7.93c-.41-1-.48-1.58-1.17-1.58h-.4v-.69H798v.69h-.8c-.41,0-.81.1-.81.53a3.26,3.26,0,0,0,.22.81l2.32,6.07h0l2.36-5.95a2.61,2.61,0,0,0,.19-.81c0-.41-.41-.65-.84-.65h-.57v-.69h3.76v.69Z"/><path id="path27" class="cls-2" d="M812.09,288.15c0,2.06-1.24,2.46-1.86,2.46-1.21,0-1.64-1.1-1.64-2.17,0-2.12.86-3.4,2.78-3.4a2.62,2.62,0,0,1,.72.1Zm4.79,0c0,1.09,0,2.34-.76,2.34-.39,0-.6-.26-.6-.89v-7.11c0-2.78-2.6-3.37-4.88-3.37-1.68,0-4.8.5-4.8,2.75a1.79,1.79,0,0,0,3.57.17c0-.68-.52-1.11-.52-1.38,0-.62,1.09-.71,1.61-.71,1.25,0,1.58.89,1.58,1.95v2.51c-.35,0-.69,0-1,0-2.59,0-6,1-6,4.11,0,2.19,1.68,3.32,3.72,3.32a3.92,3.92,0,0,0,3.48-1.59,2.75,2.75,0,0,0,2.6,1.59c2.92,0,2.95-2.09,2.95-3.67Z"/><path id="path29" class="cls-2" d="M818.64,290.7h.8c.72,0,.95-.3.95-1.61v-7.31c0-1.31-.23-1.62-.95-1.62h-.8v-.69h2.5a9.77,9.77,0,0,0,2.55-.39v2.11h0a4.4,4.4,0,0,1,3.85-2.11,3.15,3.15,0,0,1,3.49,3.38v6.63c0,1.31.24,1.61.95,1.61h.52v.7h-6.38v-.7h.52c.71,0,1-.3,1-1.61v-6c0-1.17,0-2.53-1.52-2.53-2.28,0-2.28,2.62-2.28,4.11v4.43c0,1.31.24,1.61.95,1.61h.52v.7h-6.67v-.7Z"/><path id="path31" class="cls-2" d="M849,285.09h-5.45l2.83-6.8,2.62,6.8Zm-.05,6.3h7.62v-.69H856c-.93,0-1.31-.95-1.59-1.71L850,277.61a29.5,29.5,0,0,1-1.09-3.37h-2.12a24.58,24.58,0,0,1-1,2.82l-4.65,11.14c-.78,1.89-1.23,2.5-2.45,2.5v.69h5.15v-.69h-.65c-.81,0-1.29-.35-1.29-1a6.82,6.82,0,0,1,.63-2.26l.64-1.53h6.09l.62,1.6a10.49,10.49,0,0,1,.81,2.48c0,.69-.71.69-1.79.71v.69Z"/><path id="path33" class="cls-2" d="M856.78,290.7h.81c.71,0,.95-.3.95-1.61v-7.31c0-1.31-.24-1.62-.95-1.62h-.81v-.69h2.5a9.77,9.77,0,0,0,2.55-.39v2.11h0a4.38,4.38,0,0,1,3.85-2.11c1.62,0,2.81.6,3.26,2.11a4.19,4.19,0,0,1,4-2.11,3.14,3.14,0,0,1,3.47,3.38v6.63c0,1.31.24,1.61,1,1.61h.52v.7h-6.38v-.7h.52c.71,0,1-.3,1-1.61v-6c0-1.17,0-2.53-1.52-2.53-2.29,0-2.29,2.62-2.29,4.1v4.44c0,1.31.24,1.61,1,1.61h.52v.7H864.3v-.7h.52c.72,0,.95-.3.95-1.61v-6c0-1.17,0-2.53-1.52-2.53-2.28,0-2.28,2.63-2.28,4.12v4.42c0,1.31.24,1.62.95,1.62h.52v.69h-6.67v-.7Z"/><path id="path35" class="cls-2" d="M879.32,287.5h.76c.48,2,1.6,3.48,3.84,3.48a2.16,2.16,0,0,0,2.38-2c0-1.53-1.19-1.86-3.48-2.39-1.76-.41-3.5-1-3.5-3.46,0-2.84,2.08-4.1,4.7-4.09,1.07,0,1.83.39,2.62.39a2.1,2.1,0,0,0,1.29-.4h.14v3.83h-.77a3.41,3.41,0,0,0-3.19-3c-1.17,0-2.35.44-2.35,1.9,0,1.21.61,1.38,3.37,2,2.12.47,3.73,1.15,3.73,3.91s-2.35,4-4.85,4c-1.11,0-2.33-.38-3.35-.38a2.4,2.4,0,0,0-1.2.38h-.14V287.5Z"/><path id="path37" class="cls-2" d="M898,280.16h-2.49v7.68c0,1.44,0,2.48,1.09,2.48.9,0,1-.88,1.07-1.71v-.77h.89v.52c0,2.38-.94,3.42-3.1,3.42-2.46,0-3.39-1.5-3.39-3.11v-8.51h-1.66v-.69c2.35-.14,3.86-2.43,4.38-4.57h.71v4.57h2.49v.69Z"/><path id="path39" class="cls-2" d="M903.74,284.78c0-2.34.1-4.87,2.07-4.87,1.76,0,1.76,2.29,1.76,4.87Zm7.55.69c0-3.69-1.41-6.39-5.39-6.39-3.78,0-5.88,2.65-5.88,6.35s2.1,6.36,5.88,6.36c3,0,4.84-1.53,5.15-4.47h-1a3.48,3.48,0,0,1-3.33,3.67c-2.72,0-2.93-2.52-2.93-4.91v-.59h7.55Z"/><path id="path41" class="cls-2" d="M918,289.09c0,1.31.23,1.61.95,1.61H920v.69h-7.25v-.69h.81c.71,0,1-.31,1-1.61v-7.31c0-1.31-.24-1.62-1-1.62h-.81v-.69h2.5a9.91,9.91,0,0,0,2.56-.39v2.71h.09a3.71,3.71,0,0,1,3.19-2.53c1.12,0,2.38.48,2.38,2,0,1.12-.74,1.71-2,1.71a1.46,1.46,0,0,1-1.57-1.53c0-.45,0-.57-.28-.57-.67,0-1.67,1.55-1.67,4.09Z"/><path id="path43" class="cls-2" d="M928.42,285.09c0-1.15,0-4.83,1.8-4.83,2.26,0,2.44,3.3,2.44,4.93s0,5.42-2.42,5.42c-1.82,0-1.82-4.35-1.82-5.52m4.46,6.3h5v-.69h-.76c-.61,0-1-.2-1-1.64V273.67h-5.11v.7h.73c.9,0,1,.42,1,1.58V281h0a3.56,3.56,0,0,0-3.37-1.95c-3.47,0-4.61,3.33-4.61,6.39,0,2.9,1.24,6.31,4.56,6.31,1.67,0,3-.58,3.57-2.11h0Z"/><path id="path45" class="cls-2" d="M946.3,288.15c0,2.06-1.23,2.46-1.85,2.46-1.21,0-1.64-1.1-1.64-2.17,0-2.12.86-3.4,2.78-3.4a2.56,2.56,0,0,1,.71.1v3Zm4.8,0c0,1.09,0,2.34-.76,2.34-.39,0-.6-.26-.6-.89v-7.11c0-2.78-2.6-3.37-4.88-3.37-1.68,0-4.8.5-4.8,2.75a1.67,1.67,0,0,0,1.79,1.77,1.65,1.65,0,0,0,1.78-1.6c0-.68-.52-1.11-.52-1.38,0-.62,1.09-.71,1.61-.71,1.25,0,1.58.89,1.58,1.95v2.51c-.35,0-.68,0-1,0-2.59,0-6,1-6,4.11,0,2.19,1.69,3.32,3.74,3.32a3.91,3.91,0,0,0,3.47-1.59,2.75,2.75,0,0,0,2.6,1.59c2.92,0,2.94-2.09,2.94-3.67Z"/><path id="path47" class="cls-2" d="M952.86,290.7h.8c.72,0,1-.3,1-1.61v-7.31c0-1.31-.23-1.62-1-1.62h-.8v-.69h2.5a9.77,9.77,0,0,0,2.55-.39v2.11H958a4.37,4.37,0,0,1,3.84-2.11c1.63,0,2.82.6,3.27,2.11a4.2,4.2,0,0,1,4-2.11,3.14,3.14,0,0,1,3.48,3.38v6.63c0,1.31.25,1.61,1,1.61H974v.7h-6.39v-.7h.53c.71,0,1-.3,1-1.61v-6c0-1.17,0-2.53-1.52-2.53-2.28,0-2.28,2.62-2.28,4.1v4.44c0,1.31.23,1.61,1,1.61h.52v.7h-6.38v-.7h.52c.71,0,1-.3,1-1.61v-6c0-1.17,0-2.53-1.52-2.53-2.28,0-2.28,2.63-2.28,4.12v4.42c0,1.31.23,1.62,1,1.62h.52v.69h-6.67v-.7Z"/></g><g id="g49"><g id="g51"><path id="path53" class="cls-2" d="M616,271a39.78,39.78,0,0,1,20.13,5.43l6.31-10.79a52.44,52.44,0,0,0-52.87,0l6.31,10.79A39.86,39.86,0,0,1,616,271Z"/></g><g id="g55"><path id="path57" class="cls-2" d="M621.85,277a45.17,45.17,0,0,0-20.33,4.44c-1.27.59-2.17,1.08-2.39.77-.43-.68,2.75-3.38,6.15-5.36,1.24-.73,1.94-1.37,1.67-1.91-.41-.8-2.86-1-9.67,2.53a38.13,38.13,0,0,0-9.35,7.34l1.11,1.05a47.11,47.11,0,0,1,3.48-3.29c.8-.7,4.53-3.48,4.85-2.64.13.34-.11.83-1.43,2.63-1.15,1.59-1.9,3.09-1.36,3.54s1.2.2,2.75-.66a55.18,55.18,0,0,1,10.57-4.3c5.77-1.72,7.17-1.07,7.31-.65.17.57-2.48,1.51-4,2.28a67.43,67.43,0,0,0-8.45,5.41s2.44,4.18,2.45,4.18c2.58-1.53,12.44-4,13.5-2.22,1.15,2-9.34,9.35-9.34,9.35L616,311s15.21-17.47,12.79-21.3-11.61-3.11-15.22-2.77c-1,.09-2.16.31-2.4-.18s0-2.73,12.25-5.62c2.71-.64,3.77-1,3.62-2.17C626.93,277.88,624.42,277,621.85,277Z"/></g></g><line class="cls-3" x1="510.28" y1="225.57" x2="511.48" y2="341.96"/></svg>