<svg id="Layer_1" data-name="Layer 1" xmlns="http://www.w3.org/2000/svg" viewBox="0 0 282 166"><defs><style>.cls-3{fill:#231f20}</style></defs><path fill="none" stroke="#000" stroke-miterlimit="10" d="M142 61v45"/><path id="a" d="M27 114a1 1 0 0 1-1 1l-11-8a1 1 0 0 1 0-1l14-18-21-6a1 1 0 0 1-1-1l4-13a1 1 0 0 1 1 0l21 7-1-22a1 1 0 0 1 1-1h13a1 1 0 0 1 1 1l-1 22h1l20-7a1 1 0 0 1 1 0l4 13a1 1 0 0 1 0 1l-21 6h-1 1l13 18a1 1 0 0 1 0 1l-11 8a1 1 0 0 1-1-1L40 96h-1l-12 18z" fill-rule="evenodd"/><g id="g49"><g id="g51"><path id="path53" class="cls-3" d="M245 67a48 48 0 0 1 24 7l8-14a64 64 0 0 0-64 0l7 14a48 48 0 0 1 25-7z"/></g><g id="g55"><path id="path57" class="cls-3" d="M252 74a55 55 0 0 0-25 6h-3l8-6 2-2c-1-1-4-2-12 3a47 47 0 0 0-11 9l1 1 4-4 6-3-2 3-1 4 3-1a67 67 0 0 1 13-5c7-2 9-1 9-1l-5 3a83 83 0 0 0-10 7l3 5c3-2 15-5 16-3 2 3-11 11-11 11l8 14s18-21 15-25-14-4-18-4h-3c0-1 0-3 15-7 3-1 5-1 4-2 0-2-3-3-6-3z"/></g></g></svg>