<svg xmlns="http://www.w3.org/2000/svg" xmlns:xlink="http://www.w3.org/1999/xlink" width="241" height="51"><defs><path id="a" d="M42.77 2.035v24.102a.36.36 0 0 1-.357.36h-5.456a.358.358 0 0 1-.359-.36V2.035c0-.199.16-.36.359-.36h5.456a.36.36 0 0 1 .358.36zm83.548 0c0-.199.16-.36.358-.36h16.035a.358.358 0 0 1 .358.36V6.28a.359.359 0 0 1-.358.36h-10.045a.323.323 0 0 0-.323.323v4.583c0 .18.145.324.323.324h8.635c.197 0 .358.16.358.36v3.713a.36.36 0 0 1-.358.36h-8.635a.323.323 0 0 0-.323.323v4.583c0 .179.145.323.323.323h10.045a.358.358 0 0 1 .358.36v4.245a.359.359 0 0 1-.358.36h-16.035a.359.359 0 0 1-.358-.36V2.035zm-29.27 24.122a.252.252 0 0 1-.235.34H91.56a.5.5 0 0 1-.47-.335l-1.35-3.818a.5.5 0 0 0-.472-.335h-9.081a.5.5 0 0 0-.47.335l-1.35 3.818a.5.5 0 0 1-.472.335h-5.25a.251.251 0 0 1-.234-.34l8.963-24.154a.503.503 0 0 1 .469-.328h5.771c.208 0 .395.131.467.328l8.965 24.154zM81.501 17.29a.215.215 0 0 0 .203.288h6.05a.217.217 0 0 0 .203-.288l-3.06-8.661a.181.181 0 0 0-.17-.12.177.177 0 0 0-.167.12l-3.06 8.66zm90.018 8.868a.251.251 0 0 1-.235.34h-5.25a.502.502 0 0 1-.472-.335l-1.347-3.818a.503.503 0 0 0-.473-.335h-9.08a.502.502 0 0 0-.473.335l-1.347 3.818a.504.504 0 0 1-.473.335h-5.251a.252.252 0 0 1-.235-.34l8.965-24.154a.5.5 0 0 1 .47-.328h5.769a.5.5 0 0 1 .469.328l8.963 24.154zm-15.544-8.868a.215.215 0 0 0 .201.288h6.05a.215.215 0 0 0 .203-.288l-3.06-8.661a.177.177 0 0 0-.167-.12.181.181 0 0 0-.17.12l-3.057 8.66zM.731 2.035c0-.199.16-.36.358-.36h6.333c.143 0 .274.086.328.219l7.482 16.624a.072.072 0 0 0 .065.044c.03 0 .055-.017.067-.044l7.48-16.624a.36.36 0 0 1 .33-.219h6.334a.36.36 0 0 1 .358.36v24.102c0 .199-.16.36-.358.36H24.34a.358.358 0 0 1-.356-.36V11.92a.073.073 0 0 0-.058-.07.072.072 0 0 0-.08.042L17.183 26.28a.36.36 0 0 1-.33.218h-3.112a.36.36 0 0 1-.33-.218L6.75 11.891a.073.073 0 0 0-.081-.042.073.073 0 0 0-.057.07v14.218c0 .199-.16.36-.358.36H1.09a.359.359 0 0 1-.358-.36V2.035zm113.522 24.461h-12.909a.38.38 0 0 1-.268-.11.385.385 0 0 1-.11-.27V2.057c0-.21.17-.381.378-.381h11.675c3.7 0 6.7 3.017 6.7 6.737a6.74 6.74 0 0 1-2.542 5.283 6.741 6.741 0 0 1 3.777 6.064c0 3.721-3.001 6.737-6.7 6.737zm1.055-7.49c0-.736-.291-1.515-.808-2.034a2.747 2.747 0 0 0-1.948-.812h-5.32c-.182 0-.33.15-.33.333v5.023c0 .184.148.333.33.333h5.32c.731 0 1.431-.292 1.948-.812.517-.52.808-1.298.808-2.032zm-1.309-9.835c0-1.53-1.232-2.844-2.756-2.844h-4.011a.332.332 0 0 0-.33.333v5.023c0 .185.148.333.33.333h4.011c1.524 0 2.756-1.313 2.756-2.845zm76.304 7.79V2.015a.34.34 0 0 1 .104-.234.338.338 0 0 1 .253-.11h5.527a.34.34 0 0 1 .253.11.346.346 0 0 1 .105.249v14.355c0 5.877-4.737 10.642-10.58 10.642h-1.473c-5.843 0-10.434-4.765-10.434-10.642V2.03c0-.095.037-.183.104-.249a.338.338 0 0 1 .253-.11h5.527a.34.34 0 0 1 .253.11.346.346 0 0 1 .105.249v14.933c0 2.777 2.239 5.028 5.001 5.028a4.991 4.991 0 0 0 3.537-1.476 5.04 5.04 0 0 0 1.465-3.552zm31.206 9.922a.39.39 0 0 1-.257.171.375.375 0 0 1-.299-.071l-4.56-3.328a.396.396 0 0 1-.078-.564l5.799-7.427a.16.16 0 0 0 .027-.15.167.167 0 0 0-.112-.107l-8.998-2.492a.373.373 0 0 1-.24-.193.393.393 0 0 1-.028-.307l1.742-5.391a.38.38 0 0 1 .2-.229.38.38 0 0 1 .306-.014l8.772 3.228c.05.021.108.007.152-.022a.172.172 0 0 0 .067-.143L223.62.497a.406.406 0 0 1 .11-.293.385.385 0 0 1 .281-.121h5.637c.107 0 .208.042.282.121a.406.406 0 0 1 .109.293l-.386 9.34a.172.172 0 0 0 .067.143c.044.029.1.036.152.022l8.775-3.221a.38.38 0 0 1 .306.014.38.38 0 0 1 .2.229l1.742 5.391a.393.393 0 0 1-.028.307.373.373 0 0 1-.24.193l-9.007 2.5a.168.168 0 0 0-.112.107.18.18 0 0 0 .026.157l5.81 7.412a.396.396 0 0 1-.077.564l-4.562 3.328a.375.375 0 0 1-.3.071.389.389 0 0 1-.256-.171l-5.183-7.87a.168.168 0 0 0-.137-.071.168.168 0 0 0-.135.071l-5.184 7.87zM49.852 1.67h11.722c4.195 0 7.596 3.42 7.596 7.638a7.628 7.628 0 0 1-4.898 7.14.15.15 0 0 0-.076.212c.68 1.214 5.282 9.452 5.282 9.452a.259.259 0 0 1-.003.255.264.264 0 0 1-.22.125H63.59a.48.48 0 0 1-.427-.256s-3.918-7.178-4.67-8.56a.438.438 0 0 0-.383-.226h-2.147a.324.324 0 0 0-.295.322v8.361c0 .198-.16.359-.358.359h-5.457a.358.358 0 0 1-.357-.359V2.03c0-.197.16-.358.357-.358zm10 4.963h-3.864a.331.331 0 0 0-.227.095.342.342 0 0 0-.094.234v5.818c0 .087.034.168.094.234.06.058.142.095.227.095h3.863c1.778 0 3.219-1.455 3.219-3.238 0-1.784-1.44-3.238-3.219-3.238zm145.466-5.036v25.15a.128.128 0 0 1-.128.125h-.258a.128.128 0 0 1-.128-.125V1.598a.13.13 0 0 1 .128-.132h.258a.13.13 0 0 1 .128.132zM9.31 47.108l-1.14-2.771H2.44L1.3 47.109H.73l4.283-10.332h.585L9.88 47.109h-.57zM5.305 37.35l-2.681 6.52h5.361l-2.68-6.521zm9.108 4.601c0-3.191 2.388-5.345 5.484-5.345 2.25 0 3.559 1.223 4.284 2.526l-1.88.93c-.431-.838-1.356-1.505-2.404-1.505-1.88 0-3.235 1.441-3.235 3.394 0 1.951 1.356 3.392 3.235 3.392 1.048 0 1.973-.666 2.404-1.502l1.88.914c-.725 1.286-2.035 2.54-4.284 2.54-3.096 0-5.484-2.168-5.484-5.344zm10.4 1.409c0-2.122 1.48-3.92 3.93-3.92 2.465 0 3.944 1.798 3.944 3.92 0 2.123-1.479 3.935-3.944 3.935-2.45 0-3.93-1.812-3.93-3.935zm5.84 0c0-1.162-.678-2.168-1.91-2.168-1.217 0-1.896 1.006-1.896 2.168 0 1.178.679 2.185 1.896 2.185 1.232 0 1.91-1.007 1.91-2.185zm3.192 5.67l.879-1.41c.6.651 1.4.914 2.325.914.94 0 2.065-.402 2.065-1.92v-.728c-.586.743-1.386 1.161-2.31 1.161-1.85 0-3.283-1.301-3.283-3.795 0-2.447 1.403-3.811 3.282-3.811.894 0 1.71.372 2.31 1.146v-.96h1.958v6.987c0 2.834-2.188 3.532-4.022 3.532-1.263 0-2.264-.295-3.204-1.116zm5.269-4.57v-2.432c-.34-.48-1.047-.836-1.68-.836-1.124 0-1.894.774-1.894 2.06s.77 2.06 1.894 2.06c.633 0 1.34-.371 1.68-.852zm8.768 2.65v-4.524c0-1.038-.54-1.394-1.372-1.394-.77 0-1.355.433-1.694.867v5.05H42.86v-7.482h1.956v.961c.478-.559 1.402-1.147 2.603-1.147 1.649 0 2.434.93 2.434 2.386v5.283h-1.97zm3.746 0v-7.483h1.956v7.483h-1.956zm-.186-9.465c0-.651.524-1.163 1.157-1.163.646 0 1.17.512 1.17 1.163 0 .65-.524 1.177-1.17 1.177a1.17 1.17 0 0 1-1.157-1.177zm3.606 9.465v-1.472l3.36-4.292h-3.36v-1.72h6.025v1.411l-3.42 4.353h3.481v1.72h-6.086zm12.019-.001v-.79c-.508.62-1.386.976-2.356.976-1.188 0-2.574-.805-2.574-2.478 0-1.767 1.386-2.417 2.574-2.417 1 0 1.864.326 2.356.914v-.945c0-.759-.647-1.255-1.632-1.255-.787 0-1.526.31-2.142.883l-.77-1.38c.909-.82 2.08-1.176 3.25-1.176 1.71 0 3.266.682 3.266 2.835v4.833h-1.972zm0-1.796v-.93c-.323-.433-.939-.666-1.571-.666-.77 0-1.401.417-1.401 1.13 0 .713.63 1.116 1.401 1.116.632 0 1.248-.217 1.57-.65zm8.768 1.797v-4.524c0-1.037-.539-1.394-1.37-1.394-.77 0-1.356.434-1.695.867v5.051h-1.957v-7.483h1.957v.961c.477-.559 1.401-1.147 2.604-1.147 1.649 0 2.434.93 2.434 2.386v5.283h-1.973zm4.147-1.876v-3.888H78.75v-1.72h1.232v-2.044h1.957v2.045h1.51v1.719h-1.51v3.362c0 .48.246.837.677.837.294 0 .571-.108.679-.232l.415 1.502c-.292.263-.816.481-1.632.481-1.372 0-2.096-.713-2.096-2.062zm8.506 1.876V36.777h4.052c3.22 0 5.455 2.06 5.455 5.159 0 3.13-2.234 5.174-5.44 5.174h-4.067zm7.273-5.174c0-1.813-1.11-3.223-3.206-3.223h-1.88v6.46h1.865c2.034 0 3.22-1.472 3.22-3.237zm3.59 5.174v-7.483h1.958v7.483H99.35zm-.184-9.465c0-.651.524-1.163 1.156-1.163.647 0 1.17.512 1.17 1.163 0 .65-.523 1.177-1.17 1.177a1.17 1.17 0 0 1-1.156-1.177zm3.775 11.386l.879-1.41c.6.65 1.4.913 2.327.913.938 0 2.064-.402 2.064-1.92v-.728c-.585.743-1.387 1.161-2.312 1.161-1.849 0-3.282-1.301-3.282-3.795 0-2.447 1.403-3.811 3.282-3.811.894 0 1.71.372 2.312 1.146v-.96h1.956v6.987c0 2.834-2.187 3.532-4.02 3.532-1.264 0-2.266-.295-3.206-1.115zm5.27-4.57v-2.433c-.34-.48-1.048-.836-1.68-.836-1.125 0-1.895.775-1.895 2.06 0 1.286.77 2.06 1.896 2.06.63 0 1.34-.371 1.679-.852zm3.745 2.65v-7.484h1.957v7.483h-1.957zm-.184-9.466c0-.651.523-1.163 1.155-1.163.647 0 1.17.512 1.17 1.163 0 .65-.523 1.177-1.17 1.177a1.17 1.17 0 0 1-1.155-1.177zm4.329 7.59v-3.889h-1.233v-1.72h1.233v-2.044h1.957v2.045h1.51v1.719h-1.51v3.362c0 .48.246.837.677.837.294 0 .57-.108.679-.232l.415 1.502c-.292.263-.816.481-1.632.481-1.372 0-2.096-.713-2.096-2.062zm9.122 1.874v-.79c-.509.62-1.386.976-2.358.976-1.186 0-2.573-.805-2.573-2.478 0-1.767 1.387-2.417 2.573-2.417 1.002 0 1.866.326 2.358.914v-.945c0-.759-.647-1.255-1.634-1.255-.785 0-1.525.31-2.14.883l-.77-1.38c.907-.82 2.08-1.176 3.25-1.176 1.71 0 3.266.682 3.266 2.835v4.833h-1.972zm0-1.796v-.93c-.324-.433-.94-.666-1.571-.666-.771 0-1.403.417-1.403 1.13 0 .713.632 1.116 1.403 1.116.631 0 1.247-.217 1.57-.65zm3.746-8.536h1.957V47.11h-1.957V36.777zm7.596 10.332V36.777h5.408c1.956 0 2.958 1.255 2.958 2.633 0 1.286-.802 2.17-1.772 2.37 1.11.171 1.973 1.24 1.973 2.525 0 1.565-1.018 2.804-2.99 2.804h-5.577zm6.333-3.113c0-.651-.463-1.178-1.31-1.178h-2.835v2.355h2.835c.816 0 1.31-.433 1.31-1.177zm-.202-4.199c0-.634-.461-1.084-1.2-1.084h-2.743v2.169h2.742c.74 0 1.201-.418 1.201-1.085zm8.908 7.313v-.946a3.525 3.525 0 0 1-2.62 1.132c-1.632 0-2.403-.899-2.403-2.355v-5.314h1.958v4.54c0 1.037.539 1.378 1.37 1.378.755 0 1.356-.418 1.695-.852v-5.066h1.957v7.483h-1.957zm3.098-.977l.848-1.425c.555.526 1.649 1.038 2.573 1.038.847 0 1.249-.326 1.249-.79 0-1.223-4.407-.216-4.407-3.16 0-1.255 1.079-2.355 3.05-2.355 1.248 0 2.25.435 2.989 1.023l-.786 1.394c-.446-.465-1.294-.867-2.203-.867-.708 0-1.17.309-1.17.727 0 1.101 4.421.17 4.421 3.192 0 1.378-1.171 2.385-3.236 2.385-1.294 0-2.541-.434-3.328-1.162zm7.843.977v-7.483h1.957v7.483h-1.957zm-.185-9.465c0-.651.524-1.163 1.157-1.163.646 0 1.17.512 1.17 1.163 0 .65-.524 1.177-1.17 1.177a1.17 1.17 0 0 1-1.157-1.177zm8.953 9.465v-4.524c0-1.037-.54-1.394-1.371-1.394-.77 0-1.357.434-1.695.867v5.051h-1.957v-7.483h1.957v.961c.477-.559 1.402-1.147 2.604-1.147 1.649 0 2.434.93 2.434 2.386v5.283h-1.972zm3.268-3.75c0-2.168 1.602-3.92 3.852-3.92 2.233 0 3.728 1.674 3.728 4.106v.465h-5.531c.139.914.878 1.673 2.142 1.673.63 0 1.494-.264 1.972-.728l.877 1.302c-.739.682-1.91 1.038-3.065 1.038-2.266 0-3.975-1.535-3.975-3.936zm3.852-2.308c-1.217 0-1.74.853-1.819 1.597h3.667c-.06-.713-.554-1.597-1.848-1.597zm4.346 5.081l.847-1.425c.555.526 1.649 1.038 2.574 1.038.847 0 1.247-.326 1.247-.79 0-1.223-4.406-.216-4.406-3.16 0-1.255 1.078-2.355 3.05-2.355 1.248 0 2.25.435 2.99 1.023l-.787 1.394c-.446-.465-1.294-.867-2.202-.867-.71 0-1.172.309-1.172.727 0 1.101 4.422.17 4.422 3.192 0 1.378-1.17 2.385-3.235 2.385-1.294 0-2.542-.434-3.328-1.162zm8.043-1.425c.555.526 1.649 1.038 2.573 1.038.848 0 1.249-.326 1.249-.79 0-1.223-4.407-.216-4.407-3.16 0-1.255 1.079-2.355 3.051-2.355 1.247 0 2.25.435 2.99 1.023l-.788 1.394c-.446-.465-1.294-.867-2.202-.867-.709 0-1.171.309-1.171.727 0 1.101 4.421.17 4.421 3.192 0 1.378-1.17 2.385-3.236 2.385-1.294 0-2.54-.434-3.328-1.162l.848-1.425z"/></defs><use fill="#F9F8F7" opacity=".3" xlink:href="#a" fill-rule="evenodd"/></svg>